<?xml version="1.0" standalone="no"?>
<!DOCTYPE svg PUBLIC "-//W3C//DTD SVG 1.1//EN" "http://www.w3.org/Graphics/SVG/1.1/DTD/svg11.dtd" >
<svg xmlns="http://www.w3.org/2000/svg" xmlns:xlink="http://www.w3.org/1999/xlink" version="1.1" viewBox="-10 0 266 256">
   <path fill="currentColor"
d="M114 58h3q0 1 1 1q1 1 4 1q2 1 2 2v1t-2 2q-2 0 -7 2l-2 1q-12 4 -18 8q-4 3 -2 -1q0 -1 -6 1q-14 5 -21 0q-2 0 1 -1q14 0 36 -9l2 -1t5 -4q0 -3 4 -3zM90 90q4 2 9 5v3q-2 2 -1 5q0 12 -3 28q-1 3 -1 7t0 1q12 -14 33 -56q1 -1 2 0q-15 38 -35 66q-2 3 -5 7q-4 4 -5 6
q-1 3 -5 -4q-1 -1 1 -3q7 -2 10 -17q3 -11 3 -31q-1 -1 -1 -3q-1 -9 -3 -13q-2 -2 1 -1zM40 43q6 2 14 1q4 0 11 2q1 2 1 3q1 3 -4 2q-12 2 -23 -7q-1 0 1 -1zM39 99q2 -1 4 0h2q3 3 0 5l-4 2q-2 2 -3 2q-2 2 -3 2t0 -2q0 -2 -5 -1q-6 1 -11 -1q-3 0 0 -1q11 -1 20 -6z
M77 117q1 -3 2 1q-1 1 -1 3l-3 15q-4 9 -8 24q-5 13 -6 18q-3 7 -5 13q-4 12 -6 16q-4 7 -7 5q-2 -1 -7 -5q-2 -2 2 -1q4 4 8 -3q2 -3 7 -18q2 -5 4 -11q1 -4 12 -33q4 -14 8 -24zM154 14q9 -7 14 -4q3 1 4 3q0 1 -2 3q-10 10 -15 18q7 -2 18 -7q6 -2 11 2q2 3 5 5l9 9
q1 3 -1 6q-2 2 -5 0q-12 13 -14 60q-1 4 -2 4t-2 -3q-1 0 -1 -1q-3 -7 -2 -10q-4 2 -9 6l-1 1q-4 3 -5 3q-2 0 1 -3q-5 2 -7 3q-3 1 -5 0q0 4 1 10q0 6 1 9q9 -3 17 -6q19 -9 42 -14q6 -1 12 -3q2 0 4 -1q2 -3 14 0q2 1 2 3t-2 2q-27 9 -46 16q-3 1 -3 0t3 -3q2 -1 5 -3
q3 -1 6 -3q4 -3 -1 -2q-28 7 -42 16q-6 3 -11 4q2 8 4 12q3 0 10 -3l4 -2q20 -6 30 -5q13 1 20 8q5 8 13 11q3 5 0 8q-2 2 -5 9v1q-8 22 -23 37q-2 1 -5 5t-4 6q-4 5 -8 1q-7 -8 -14 -12q-2 -1 -3 -2q-9 -4 -13 -9q-3 -4 2 -2q16 9 35 13q6 0 15 -11q14 -24 13 -41
q-4 -16 -22 -19q-13 -1 -41 10q-7 4 -17 5q-4 2 -2 -2q0 -5 4 -5q1 1 3 1q1 -1 2 -1q-5 -2 -10 -11q-3 -5 2 -7q3 0 4 -5v-39q-1 -14 -2 -24q-5 2 -9 5q-4 4 -5 -1q-1 -10 10 -12q13 -20 19 -28q4 -7 0 -8h-2q0 -1 2 -3zM175 32q-6 3 -18 6q-4 1 -6 1l-3 3l-3 6q5 1 6 2
q2 1 0 3q-4 3 -5 21q7 -1 11 -5q4 -3 11 -5q5 2 1 6q-8 4 -14 8q-4 3 -1 -1q-6 2 -8 0q-2 17 -1 28q6 0 16 -9l1 -1q2 -2 10 -3q1 -8 3 -23q2 -17 4 -32q1 -6 -4 -5zM123 165q-10 -1 7 19q0 6 -5 4q-5 -1 -9 -17q-2 -7 4 -9q2 -1 3 1q2 2 0 2zM155 152q13 9 15 19q-1 4 -4 1
q-5 -3 -6 -7q-2 -6 -6 -12q-3 -3 1 -1zM132 155q17 11 19 22q-1 3 -4 1q-6 -4 -6 -8q-4 -7 -10 -13q-2 -3 1 -2zM182 147q16 14 16 22q-1 4 -4 2q-3 -1 -6 -5v-2q-2 -6 -8 -14q-2 -1 -1 -2t3 -1z" />
</svg>
