<?xml version="1.0" standalone="no"?>
<!DOCTYPE svg PUBLIC "-//W3C//DTD SVG 1.1//EN" "http://www.w3.org/Graphics/SVG/1.1/DTD/svg11.dtd" >
<svg xmlns="http://www.w3.org/2000/svg" xmlns:xlink="http://www.w3.org/1999/xlink" version="1.1" viewBox="-10 0 266 256">
   <path fill="currentColor"
d="M109 91q-2 -1 1 -1q16 7 23 16q1 3 0 5q-1 3 -3 1q-7 -1 -11 -10q-6 -7 -10 -11zM157 77q0 -4 2 -1q0 8 3 16v3q1 0 3 -1q1 -1 3 -4q2 -4 4 -6q1 -1 2 -1q1 2 1 3q-10 18 -10 28q0 4 -1 5q-4 3 -4 0q-4 -6 -6 -27q-1 -3 1 -5q2 -3 2 -10zM99 47q-1 -2 1 -1q13 8 8 10
q-2 5 -2 10h3q5 -2 10 -3q4 -4 7 -4q15 1 22 7q2 1 2 2v1q-2 2 -6 0q-2 0 -2 -1q-11 -4 -36 2q0 4 -2 14q-2 9 -1 30v37v47q0 3 1 6q0 1 1 4q1 6 -1 6q-4 2 -5 -2q-2 -7 -5 -10q-5 -7 -9 -24q0 -1 2 0q5 10 10 14v1q3 2 3 -3q0 -35 -1 -57v-43q-40 49 -71 65q-4 1 0 -2
q37 -27 63 -61q8 -10 9 -21q-9 2 -35 11l-21 7q-20 9 -28 1q-3 0 0 -1q10 1 30 -6q19 -5 35 -10q15 -5 19 -6q0 -11 -1 -13v-7zM111 16q5 0 16 6q0 1 1 1q2 2 0 3q-2 4 -4 2q-7 0 -14 4q-34 19 -50 22q-3 0 -1 -2q16 -6 48 -26q6 -4 2 -7q-2 -1 2 -3zM196 2q-3 -2 1 -2
q8 4 14 11q2 3 0 4l-1 1q-4 4 -3 10q-3 24 -1 86q1 35 2 52q1 20 1 42q-1 6 1 12q1 2 -3 5q-2 3 -5 0q-9 -10 -21 -18q1 0 -1 -1q-6 -1 -12 -7q-2 -3 1 -2q12 8 28 10q7 3 8 -1q0 -39 -3 -87q-1 -5 -1 -16q-2 -52 -1 -83q0 -10 -4 -16z" />
</svg>
