<?xml version="1.0" standalone="no"?>
<!DOCTYPE svg PUBLIC "-//W3C//DTD SVG 1.1//EN" "http://www.w3.org/Graphics/SVG/1.1/DTD/svg11.dtd" >
<svg xmlns="http://www.w3.org/2000/svg" xmlns:xlink="http://www.w3.org/1999/xlink" version="1.1" viewBox="-10 0 266 256">
   <path fill="currentColor"
d="M110 168l24 22q9 9 3 11q-8 3 -12 -7q-4 -8 -17 -25q-4 -5 2 -1zM133 -3q5 2 10 5q1 1 0 3q-1 3 -3 2q-4 -1 -16 9q-32 23 -55 33q-3 0 -1 -3q18 -9 60 -41q1 -2 -1 -1q-56 19 -60 34q1 4 -4 4q-6 3 -7 -12q-1 -2 2 -4q2 0 8 -16q1 -4 2 0q-1 4 0 10q0 1 1 1q0 3 5 0
l20 -10q18 -6 35 -11q3 -2 4 -3zM66 86q2 4 3 16q0 3 1 5q-1 12 0 17t3 7q10 -3 26 -9q1 -2 3 -2h11q3 0 3 1q0 3 -2 2q-2 1 -3 1q-5 3 -8 2q-2 1 -5 2h-4q9 10 8 11q0 1 -1 3v6h9q9 -1 14 -1q6 1 9 -4q2 -3 9 0q0 1 1 1q10 2 15 6q3 4 -4 6q-13 -4 -21 -4q-7 -1 -33 1
q-9 45 -46 64q-10 5 -2 -2q34 -19 41 -61q-32 6 -45 11q-9 3 -21 0q-3 0 -3 -1t3 -2q8 -1 16 -3q33 -5 51 -10q1 -10 -2 -20q-2 2 -3 1q-1 1 -2 1q-8 4 -13 3q0 2 -2 4q-3 3 -4 0q-5 -4 -8 -10q-2 2 1 -11q1 -2 2 -2q3 -12 0 -28q0 -2 3 -1zM96 102h3q5 -2 9 -4q3 0 3 1
q0 3 -2 3q-4 3 -11 7q-3 1 -6 3q-7 7 -2 -1q0 -1 -1 -1h-4t-2 -1t2 -2q8 -2 9 -3q0 -1 2 -2zM131 133q-3 6 -5 6q-4 -2 -3 -5q1 -20 0 -32q0 -13 -1 -26q0 -11 -16 -8q-3 3 -2 10q-2 4 12 2q3 0 3 1q-1 5 -6 4q-2 1 -3 1q-4 1 -5 2q-3 2 -4 1q-3 -1 -4 -4v-1q-1 0 0 -3
q1 -7 1 -11l-10 4q-7 27 -15 22q-2 -1 -1 -2q5 -6 6 -15q-2 1 -4 1q-5 1 -9 0q-3 0 0 -1q1 0 3 -1q5 -3 11 -6l-1 -1v-3q-3 -7 8 2q7 -2 13 -4q0 -10 -6 -17q-1 1 -2 1q-17 5 -27 9q-9 4 -20 1q-6 -1 0 -2q13 -1 26 -6q27 -8 45 -13q-1 0 0 -1l3 -3q3 -3 5 -3q5 0 11 2
q1 1 5 2q3 1 5 1q5 2 3 5q-2 7 -7 3q-12 -6 -44 3q13 10 10 16q19 -4 29 11q2 3 2 5q-1 2 -3 2q-5 1 -4 7q0 4 -1 10q0 11 1 13q1 5 1 16v5zM210 18q3 4 6 6q4 4 6 5q4 5 -3 7q-8 2 -12 12q-9 22 -21 36q35 14 51 38q3 7 -3 7q-15 -5 -25 -6q-15 -2 -37 -12q-1 6 -1 18
q-2 63 1 89q7 7 12 17q1 4 -5 4q-1 -1 -3 -2q-4 -3 -6 -6q-4 -7 -9 -10q-3 -7 7 -15q0 -31 -1 -47v-35q0 -34 -1 -76q0 -12 -5 -14q-3 -1 -2 -2l3 -1q5 2 10 3q4 2 2 5q-3 6 -2 13v55q15 10 41 9q9 0 9 -2q2 -2 -4 -7q-13 -10 -35 -20q-3 0 -3 -1t3 -4q13 -14 23 -50
q1 -4 -5 -5q-16 5 -28 5q-5 0 0 -2q16 -3 26 -9q4 -7 11 -3z" />
</svg>
