<?xml version="1.0" standalone="no"?>
<!DOCTYPE svg PUBLIC "-//W3C//DTD SVG 1.1//EN" "http://www.w3.org/Graphics/SVG/1.1/DTD/svg11.dtd" >
<svg xmlns="http://www.w3.org/2000/svg" xmlns:xlink="http://www.w3.org/1999/xlink" version="1.1" viewBox="-10 0 266 256">
   <path fill="currentColor"
d="M117 -12q4 5 10 7q4 1 1 8q-2 6 -3 31v11q23 -5 42 -7q17 -1 24 11q7 11 13 12q6 6 0 10q-7 3 -8 12q-16 34 -34 45q-16 11 -36 -2q-1 24 -1 43t1 33q1 22 20 29q1 0 1 2q0 1 -1 2q-18 6 -25 -10l-9 -9q-3 -2 -4 -3q-4 -4 -1 -7q3 -2 8 -1t5 -5v-18v-65q-21 8 -31 5
q4 5 10 9q3 3 0 6t-6 0q-14 -14 -22 -14q-10 0 -8 -6q0 -10 4 -10q3 -1 2 -6q-2 -11 -5 -20q-3 -6 -4 -26v-4q1 -4 2 0q8 57 25 69q12 -2 29 -7q1 0 3 -1v-26q-8 2 -14 3q-6 2 -13 2q-3 0 -4 -1q0 -1 3 -2q4 -1 11 -2q12 -3 17 -5q0 -21 -1 -30q-8 3 -26 8q-12 3 -17 4
q-6 0 -1 -2q22 -9 44 -15q0 -29 -1 -39t-3 -17q-1 -2 0 -2q0 -1 3 0zM126 49q0 5 -1 16v13q2 0 5 -2q5 -2 6 -3q2 -4 18 -4q2 1 3 3q0 2 -2 2q-16 5 -29 9v27q11 -2 18 -6l2 -1q0 -2 7 0h7q2 1 3 3q-1 2 -3 2q-9 2 -20 4q-9 2 -14 3v5q21 12 33 0q18 -21 26 -56
q3 -19 -14 -23q-18 1 -45 8z" />
</svg>
